<?xml version="1.0" encoding="UTF-8" standalone="no"?>
<!-- Created with Inkscape (http://www.inkscape.org/) -->

<svg
   xmlns:dc="http://purl.org/dc/elements/1.1/"
   xmlns:cc="http://creativecommons.org/ns#"
   xmlns:rdf="http://www.w3.org/1999/02/22-rdf-syntax-ns#"
   xmlns:svg="http://www.w3.org/2000/svg"
   xmlns="http://www.w3.org/2000/svg"
   xmlns:sodipodi="http://sodipodi.sourceforge.net/DTD/sodipodi-0.dtd"
   xmlns:inkscape="http://www.inkscape.org/namespaces/inkscape"
   width="32"
   height="32"
   id="svg4537"
   version="1.1"
   inkscape:version="0.48.2 r9819"
   sodipodi:docname="New document 7">
  <defs
     id="defs4539" />
  <sodipodi:namedview
     id="base"
     pagecolor="#ffffff"
     bordercolor="#666666"
     borderopacity="1.0"
     inkscape:pageopacity="0.0"
     inkscape:pageshadow="2"
     inkscape:zoom="5.6"
     inkscape:cx="42.151077"
     inkscape:cy="11.197588"
     inkscape:document-units="px"
     inkscape:current-layer="layer1"
     showgrid="false"
     inkscape:window-width="1440"
     inkscape:window-height="852"
     inkscape:window-x="0"
     inkscape:window-y="0"
     inkscape:window-maximized="1" />
  <metadata
     id="metadata4542">
    <rdf:RDF>
      <cc:Work
         rdf:about="">
        <dc:format>image/svg+xml</dc:format>
        <dc:type
           rdf:resource="http://purl.org/dc/dcmitype/StillImage" />
        <dc:title></dc:title>
      </cc:Work>
    </rdf:RDF>
  </metadata>
  <g
     inkscape:label="Layer 1"
     inkscape:groupmode="layer"
     id="layer1"
     transform="translate(0,-1020.3622)">
    <path
       style="opacity:0.8;fill:#f3e6c5;fill-opacity:1;fill-rule:nonzero;stroke:none"
       d="m 16,1024.3622 c -6.627417,0 -12,5.3726 -12,12 0,6.6274 5.372583,12 12,12 6.627417,0 12,-5.3726 12,-12 0,-6.6274 -5.372583,-12 -12,-12 z m 0.125,4.3438 c 1.733064,0 3.132152,0.4342 4.15625,1.3437 1.024077,0.9024 1.531238,1.9531 1.53125,3.1563 -1.2e-5,0.666 -0.182955,1.3118 -0.5625,1.9062 -0.372407,0.5944 -1.17449,1.4134 -2.40625,2.4375 -0.637379,0.53 -1.029956,0.9277 -1.1875,1.25 -0.150399,0.3223 -0.233081,0.9193 -0.21875,1.75 l -2.75,0 c -0.0072,-0.3939 -5e-6,-0.6328 0,-0.7187 -5e-6,-0.8881 0.143875,-1.6146 0.4375,-2.1875 0.293614,-0.573 0.869134,-1.2214 1.75,-1.9375 0.880851,-0.7162 1.421866,-1.1843 1.59375,-1.4063 0.264965,-0.3509 0.406241,-0.7337 0.40625,-1.1562 -9e-6,-0.5873 -0.246103,-1.1159 -0.71875,-1.5313 -0.465503,-0.4225 -1.080086,-0.625 -1.875,-0.625 -0.766282,0 -1.42188,0.2194 -1.9375,0.6563 -0.515629,0.4368 -0.869145,1.1048 -1.0625,2 L 10.5,1033.2997 c 0.07878,-1.2819 0.646483,-2.3548 1.65625,-3.25 1.016923,-0.8952 2.321609,-1.3437 3.96875,-1.3437 z m -1.4375,12.875 3.03125,0 0,3.0312 -3.03125,0 0,-3.0312 z"
       id="path4545"
       inkscape:connector-curvature="0" />
    <text
       xml:space="preserve"
       style="font-size:30px;font-style:normal;font-weight:normal;line-height:125%;letter-spacing:0px;word-spacing:0px;fill:#000000;fill-opacity:1;stroke:none;font-family:Sans"
       x="-49.82143"
       y="28.607143"
       id="text4547"
       sodipodi:linespacing="125%"
       transform="translate(0,1020.3622)"><tspan
         sodipodi:role="line"
         id="tspan4549"
         x="-49.82143"
         y="28.607143" /></text>
  </g>
</svg>
