<?xml version="1.0" encoding="UTF-8" standalone="no"?>
<!-- Created with Inkscape (http://www.inkscape.org/) -->

<svg
   xmlns:dc="http://purl.org/dc/elements/1.1/"
   xmlns:cc="http://creativecommons.org/ns#"
   xmlns:rdf="http://www.w3.org/1999/02/22-rdf-syntax-ns#"
   xmlns:svg="http://www.w3.org/2000/svg"
   xmlns="http://www.w3.org/2000/svg"
   xmlns:sodipodi="http://sodipodi.sourceforge.net/DTD/sodipodi-0.dtd"
   xmlns:inkscape="http://www.inkscape.org/namespaces/inkscape"
   width="32"
   height="32"
   id="svg4537"
   version="1.1"
   inkscape:version="0.48.2 r9819"
   sodipodi:docname="ic_switch_on.svg">
  <defs
     id="defs4539" />
  <sodipodi:namedview
     id="base"
     pagecolor="#ffffff"
     bordercolor="#666666"
     borderopacity="1.0"
     inkscape:pageopacity="0.0"
     inkscape:pageshadow="2"
     inkscape:zoom="11.2"
     inkscape:cx="-5.2952874"
     inkscape:cy="13.106415"
     inkscape:document-units="px"
     inkscape:current-layer="layer1"
     showgrid="false"
     inkscape:window-width="1440"
     inkscape:window-height="878"
     inkscape:window-x="1831"
     inkscape:window-y="69"
     inkscape:window-maximized="0"
     showguides="true"
     inkscape:guide-bbox="true" />
  <metadata
     id="metadata4542">
    <rdf:RDF>
      <cc:Work
         rdf:about="">
        <dc:format>image/svg+xml</dc:format>
        <dc:type
           rdf:resource="http://purl.org/dc/dcmitype/StillImage" />
        <dc:title></dc:title>
      </cc:Work>
    </rdf:RDF>
  </metadata>
  <g
     inkscape:label="Layer 1"
     inkscape:groupmode="layer"
     id="layer1"
     transform="translate(0,-1020.3622)">
    <text
       xml:space="preserve"
       style="font-size:30px;font-style:normal;font-weight:normal;line-height:125%;letter-spacing:0px;word-spacing:0px;fill:#000000;fill-opacity:1;stroke:none;font-family:Sans"
       x="-49.82143"
       y="28.607143"
       id="text4547"
       sodipodi:linespacing="125%"
       transform="translate(0,1020.3622)"><tspan
         sodipodi:role="line"
         id="tspan4549"
         x="-49.82143"
         y="28.607143" /></text>
    <path
       style="opacity:0.8;fill:#f3e6c5;fill-opacity:1;fill-rule:nonzero;stroke:none"
       d="M 16 4 C 9.372583 4 4 9.3725828 4 16 C 4 22.627417 9.372583 28 16 28 C 22.627417 28 28 22.627417 28 16 C 28 9.3725828 22.627417 4 16 4 z M 15.15625 10.40625 L 16.84375 10.40625 C 16.932427 10.40625 17 10.473823 17 10.5625 L 17 16.65625 C 17 16.744927 16.932427 16.8125 16.84375 16.8125 L 15.15625 16.8125 C 15.067573 16.8125 15 16.744927 15 16.65625 L 15 10.5625 C 15 10.473823 15.067573 10.40625 15.15625 10.40625 z M 20.40625 11.96875 C 21.289446 12.93345 21.90166 14.18755 22 15.59375 C 22.231153 18.89945 19.711887 21.7689 16.40625 22 C 13.100616 22.2312 10.231152 19.71195 10 16.40625 C 9.88442 14.75335 10.461349 13.2213 11.46875 12.0625 L 12.9375 13.4375 C 12.265896 14.21 11.8917 15.24185 11.96875 16.34375 C 12.12285 18.54745 14.046239 20.2166 16.25 20.0625 C 18.453758 19.9084 20.122854 17.98505 19.96875 15.78125 C 19.907088 14.89945 19.561752 14.09545 19.03125 13.46875 L 20.40625 11.96875 z "
       transform="translate(0,1020.3622)"
       id="path4399" />
  </g>
</svg>
