<?xml version="1.0" encoding="UTF-8" standalone="no"?>
<!-- Created with Inkscape (http://www.inkscape.org/) -->

<svg
   xmlns:dc="http://purl.org/dc/elements/1.1/"
   xmlns:cc="http://creativecommons.org/ns#"
   xmlns:rdf="http://www.w3.org/1999/02/22-rdf-syntax-ns#"
   xmlns:svg="http://www.w3.org/2000/svg"
   xmlns="http://www.w3.org/2000/svg"
   xmlns:xlink="http://www.w3.org/1999/xlink"
   xmlns:sodipodi="http://sodipodi.sourceforge.net/DTD/sodipodi-0.dtd"
   xmlns:inkscape="http://www.inkscape.org/namespaces/inkscape"
   width="744.09448819"
   height="1052.3622047"
   id="svg2"
   version="1.1"
   inkscape:version="0.48.2 r9819"
   sodipodi:docname="noevents.svg"
   inkscape:export-filename="/Users/fedepaol/devel/DroidAlone/res/drawable-xhdpi/no_events.png"
   inkscape:export-xdpi="44.964657"
   inkscape:export-ydpi="44.964657">
  <defs
     id="defs4">
    <linearGradient
       inkscape:collect="always"
       id="linearGradient3896">
      <stop
         style="stop-color:#474e8d;stop-opacity:1;"
         offset="0"
         id="stop3898" />
      <stop
         style="stop-color:#474e8d;stop-opacity:0;"
         offset="1"
         id="stop3900" />
    </linearGradient>
    <linearGradient
       id="linearGradient3849">
      <stop
         style="stop-color:#070d40;stop-opacity:0;"
         offset="0"
         id="stop3851" />
      <stop
         style="stop-color:#3c3f56;stop-opacity:0;"
         offset="1"
         id="stop3853" />
    </linearGradient>
    <linearGradient
       id="linearGradient3767">
      <stop
         style="stop-color:#474e8d;stop-opacity:0;"
         offset="0"
         id="stop3769" />
      <stop
         id="stop3775"
         offset="0.5"
         style="stop-color:#272d66;stop-opacity:0;" />
      <stop
         style="stop-color:#070d40;stop-opacity:0;"
         offset="1"
         id="stop3771" />
    </linearGradient>
    <radialGradient
       inkscape:collect="always"
       xlink:href="#linearGradient3849"
       id="radialGradient3855"
       cx="141.51562"
       cy="282.35835"
       fx="141.51562"
       fy="282.35835"
       r="313.23914"
       gradientTransform="matrix(1,0,0,0.86817404,0,37.22216)"
       gradientUnits="userSpaceOnUse" />
    <radialGradient
       inkscape:collect="always"
       xlink:href="#linearGradient3849"
       id="radialGradient3857"
       gradientUnits="userSpaceOnUse"
       gradientTransform="matrix(2.2857637,-1.6302111e-8,4.5955229e-8,2.6816573,336.35415,-434.5948)"
       cx="130.98502"
       cy="272.81863"
       fx="130.98502"
       fy="272.81863"
       r="313.23914" />
    <radialGradient
       inkscape:collect="always"
       xlink:href="#linearGradient3849"
       id="radialGradient3859"
       gradientUnits="userSpaceOnUse"
       gradientTransform="matrix(1,0,0,0.86817404,0,37.22216)"
       cx="129.99976"
       cy="705.02197"
       fx="129.99976"
       fy="705.02197"
       r="313.23914" />
    <radialGradient
       inkscape:collect="always"
       xlink:href="#linearGradient3849"
       id="radialGradient3861"
       gradientUnits="userSpaceOnUse"
       gradientTransform="matrix(1,0,0,0.86817404,0,37.22216)"
       cx="141.51562"
       cy="282.35835"
       fx="141.51562"
       fy="282.35835"
       r="313.23914" />
    <radialGradient
       inkscape:collect="always"
       xlink:href="#linearGradient3849"
       id="radialGradient3887"
       gradientUnits="userSpaceOnUse"
       gradientTransform="matrix(11.93892,0.07128165,-0.02702404,4.5262261,-1540.3976,-1005.7468)"
       cx="141.51562"
       cy="282.35834"
       fx="141.51562"
       fy="282.35834"
       r="313.23914" />
    <radialGradient
       inkscape:collect="always"
       xlink:href="#linearGradient3896"
       id="radialGradient3902"
       cx="133.78862"
       cy="599.72455"
       fx="133.78862"
       fy="599.72455"
       r="249.16739"
       gradientTransform="matrix(8.4792428,0.03869964,-0.01530192,3.3527259,-991.46064,-1416.1651)"
       gradientUnits="userSpaceOnUse" />
    <radialGradient
       inkscape:collect="always"
       xlink:href="#linearGradient3896"
       id="radialGradient3904"
       gradientUnits="userSpaceOnUse"
       gradientTransform="matrix(8.4791109,0.06111545,-0.16053466,22.272881,-905.02889,-12676.853)"
       cx="193.49048"
       cy="587.69739"
       fx="193.49048"
       fy="587.69739"
       r="249.16739" />
    <radialGradient
       inkscape:collect="always"
       xlink:href="#linearGradient3896"
       id="radialGradient3906"
       gradientUnits="userSpaceOnUse"
       gradientTransform="matrix(8.4792428,0.03869964,-0.01530192,3.3527259,-991.46064,-1416.1651)"
       cx="133.98354"
       cy="630.56647"
       fx="133.98354"
       fy="630.56647"
       r="249.16739" />
    <radialGradient
       inkscape:collect="always"
       xlink:href="#linearGradient3849"
       id="radialGradient3908"
       gradientUnits="userSpaceOnUse"
       gradientTransform="matrix(11.93892,0.07128165,-0.02702404,4.5262261,-1540.3976,-1005.7468)"
       cx="141.51562"
       cy="282.35834"
       fx="141.51562"
       fy="282.35834"
       r="313.23914" />
    <radialGradient
       inkscape:collect="always"
       xlink:href="#linearGradient3849"
       id="radialGradient3910"
       gradientUnits="userSpaceOnUse"
       gradientTransform="matrix(11.93892,0.07128165,-0.02702404,4.5262261,-1540.3976,-1005.7468)"
       cx="141.51562"
       cy="282.35834"
       fx="141.51562"
       fy="282.35834"
       r="313.23914" />
    <radialGradient
       inkscape:collect="always"
       xlink:href="#linearGradient3896"
       id="radialGradient3916"
       gradientUnits="userSpaceOnUse"
       gradientTransform="matrix(8.4791109,0.06111545,-0.16053466,22.272881,-905.02889,-12676.853)"
       cx="193.49048"
       cy="587.69739"
       fx="193.49048"
       fy="587.69739"
       r="249.16739" />
    <radialGradient
       inkscape:collect="always"
       xlink:href="#linearGradient3896"
       id="radialGradient3918"
       gradientUnits="userSpaceOnUse"
       gradientTransform="matrix(8.4792428,0.03869964,-0.01530192,3.3527259,-991.46064,-1416.1651)"
       cx="133.98354"
       cy="630.56647"
       fx="133.98354"
       fy="630.56647"
       r="249.16739" />
    <radialGradient
       inkscape:collect="always"
       xlink:href="#linearGradient3896"
       id="radialGradient3920"
       gradientUnits="userSpaceOnUse"
       gradientTransform="matrix(8.4792428,0.03869964,-0.01530192,3.3527259,-991.46064,-1416.1651)"
       cx="133.78862"
       cy="599.72455"
       fx="133.78862"
       fy="599.72455"
       r="249.16739" />
    <radialGradient
       inkscape:collect="always"
       xlink:href="#linearGradient3849"
       id="radialGradient3922"
       gradientUnits="userSpaceOnUse"
       gradientTransform="matrix(11.93892,0.07128165,-0.02702404,4.5262261,-1540.3976,-1005.7468)"
       cx="141.51562"
       cy="282.35834"
       fx="141.51562"
       fy="282.35834"
       r="313.23914" />
    <radialGradient
       inkscape:collect="always"
       xlink:href="#linearGradient3896"
       id="radialGradient3925"
       gradientUnits="userSpaceOnUse"
       gradientTransform="matrix(8.4792428,0.03869964,-0.01530192,3.3527259,-866.18898,-497.47793)"
       cx="133.98354"
       cy="630.56647"
       fx="133.98354"
       fy="630.56647"
       r="249.16739" />
    <radialGradient
       inkscape:collect="always"
       xlink:href="#linearGradient3896"
       id="radialGradient3928"
       gradientUnits="userSpaceOnUse"
       gradientTransform="matrix(8.6129018,0.06207978,-0.16306772,22.624323,-1330.7904,-11701.348)"
       cx="193.49048"
       cy="587.69739"
       fx="193.49048"
       fy="587.69739"
       r="249.16739" />
  </defs>
  <sodipodi:namedview
     id="base"
     pagecolor="#ffffff"
     bordercolor="#666666"
     borderopacity="1.0"
     inkscape:pageopacity="0.0"
     inkscape:pageshadow="2"
     inkscape:zoom="0.49497475"
     inkscape:cx="290.60447"
     inkscape:cy="147.00984"
     inkscape:document-units="px"
     inkscape:current-layer="g3793"
     showgrid="true"
     inkscape:window-width="1440"
     inkscape:window-height="852"
     inkscape:window-x="0"
     inkscape:window-y="0"
     inkscape:window-maximized="1">
    <inkscape:grid
       type="xygrid"
       id="grid3757" />
  </sodipodi:namedview>
  <metadata
     id="metadata7">
    <rdf:RDF>
      <cc:Work
         rdf:about="">
        <dc:format>image/svg+xml</dc:format>
        <dc:type
           rdf:resource="http://purl.org/dc/dcmitype/StillImage" />
        <dc:title></dc:title>
      </cc:Work>
    </rdf:RDF>
  </metadata>
  <g
     inkscape:label="Layer 1"
     inkscape:groupmode="layer"
     id="layer1">
    <g
       id="g3836"
       style="fill:url(#radialGradient3855);fill-opacity:1;stroke:#070d40;stroke-opacity:1"
       transform="translate(-321.25247,-12.324537)"
       inkscape:export-filename="/Users/fedepaol/devel/DroidAlone/res/drawable-ldpi/no_events.png"
       inkscape:export-xdpi="21.549358"
       inkscape:export-ydpi="21.549358">
      <g
         transform="matrix(1.2571434,0,0,1.2571434,373.20161,-919.75687)"
         id="g3793"
         style="fill:url(#radialGradient3922);fill-opacity:1;stroke:#070d40;stroke-opacity:1">
        <path
           inkscape:connector-curvature="0"
           id="rect3763"
           d="m 153.7707,1220.9224 c -10.76379,0.5422 -19.26805,9.4125 -19.26805,20.3156 l 0,40.6312 -100.816048,0 c -50.54562,0 -91.19789,45.7934 -91.19789,102.6571 l 0,282.2278 c 0,56.8638 40.65227,102.6889 91.19789,102.6889 l 449.990008,0 c 50.54554,0 91.22963,-45.8251 91.22963,-102.6889 l 0,-282.2278 c 0,-56.8637 -40.68409,-102.6571 -91.22963,-102.6571 l -105.38705,0 0,-40.6312 c 0,-11.2548 -9.06075,-20.3156 -20.31558,-20.3156 -11.25484,0 -20.31557,9.0608 -20.31557,20.3156 l 0,40.6312 -162.52463,0 0,-40.6312 c 0,-11.2548 -9.06075,-20.3156 -20.31556,-20.3156 -0.35173,0 -0.70031,-0.017 -1.04752,0 z m -98.371858,102.0858 79.103808,0 0,19.8077 c 0,11.2548 9.06072,20.3156 20.31557,20.3156 11.25481,0 20.31556,-9.0608 20.31556,-20.3156 l 0,-19.8077 162.52463,0 0,19.8077 c 0,11.2548 9.06073,20.3156 20.31557,20.3156 11.25483,0 20.31558,-9.0608 20.31558,-20.3156 l 0,-19.8077 83.70652,0 c 41.94256,0 75.70726,37.9496 75.70726,85.135 l 0,15.935 -545.4097384,0 c -4.7686996,0 -9.1434096,1.6179 -12.6020096,4.3488 l 0,-20.2838 c 0,-47.1854 33.76467,-85.135 75.70725,-85.135 z m -75.70725,137.3206 c 3.45911,2.7325 7.83182,4.3806 12.6020096,4.3806 l 545.4097384,0 0,177.6978 c 0,47.1853 -33.7647,85.1667 -75.70726,85.1667 l -406.597238,0 c -41.94258,0 -75.70725,-37.9814 -75.70725,-85.1667 l 0,-182.0784 z"
           style="fill:url(#radialGradient3928);fill-opacity:1;fill-rule:nonzero;stroke:#070d40;stroke-width:3.94582891;stroke-miterlimit:4;stroke-opacity:1;stroke-dasharray:none"
           inkscape:export-filename="/Users/fedepaol/devel/DroidAlone/res/drawable-hdpi/no_events.png"
           inkscape:export-xdpi="28.792826"
           inkscape:export-ydpi="28.792826" />
        <path
           inkscape:connector-curvature="0"
           id="rect3789"
           d="m 319.79291,1521.4558 c -7.94327,-7.034 -20.03488,-6.6544 -27.54608,1.0134 l -34.98869,35.7183 -35.71822,-34.9887 c -7.91516,-7.7535 -20.52927,-7.6234 -28.28277,0.2918 l -13.99547,14.2873 c -7.7535,7.9151 -7.62335,20.5293 0.29181,28.2828 l 35.71823,34.9887 -34.98869,35.7182 c -7.7535,7.9152 -7.62335,20.5293 0.29181,28.2828 l 14.28729,13.9955 c 7.91516,7.7534 20.52927,7.6233 28.28277,-0.2919 l 34.98869,-35.7182 35.71822,34.9887 c 7.91516,7.7535 20.52927,7.6233 28.28277,-0.2918 l 13.99547,-14.2873 c 7.7535,-7.9152 7.62335,-20.5293 -0.29181,-28.2828 l -35.71823,-34.9887 34.98869,-35.7182 c 7.7535,-7.9152 7.62335,-20.5293 -0.29181,-28.2828 l -14.28729,-13.9955 c -0.24735,-0.2423 -0.48047,-0.4947 -0.73669,-0.7216 z"
           style="fill:url(#radialGradient3925);fill-opacity:1;fill-rule:nonzero;stroke:#070d40;stroke-width:3;stroke-miterlimit:4;stroke-opacity:1;stroke-dasharray:none" />
      </g>
    </g>
  </g>
</svg>
