<?xml version="1.0" encoding="UTF-8" standalone="no"?>
<!-- Created with Inkscape (http://www.inkscape.org/) -->

<svg
   xmlns:dc="http://purl.org/dc/elements/1.1/"
   xmlns:cc="http://creativecommons.org/ns#"
   xmlns:rdf="http://www.w3.org/1999/02/22-rdf-syntax-ns#"
   xmlns:svg="http://www.w3.org/2000/svg"
   xmlns="http://www.w3.org/2000/svg"
   xmlns:sodipodi="http://sodipodi.sourceforge.net/DTD/sodipodi-0.dtd"
   xmlns:inkscape="http://www.inkscape.org/namespaces/inkscape"
   width="24"
   height="24"
   id="svg3802"
   version="1.1"
   inkscape:version="0.48.2 r9819"
   sodipodi:docname="notification.svg"
   inkscape:export-filename="/Users/fedepaol/devel/DroidAlone/res/drawable-xhdpi/ic_stat_home_alone_notify.png"
   inkscape:export-xdpi="180"
   inkscape:export-ydpi="180">
  <defs
     id="defs3804" />
  <sodipodi:namedview
     id="base"
     pagecolor="#ffffff"
     bordercolor="#666666"
     borderopacity="1.0"
     inkscape:pageopacity="0.0"
     inkscape:pageshadow="2"
     inkscape:zoom="11.2"
     inkscape:cx="4.6062667"
     inkscape:cy="21.908453"
     inkscape:document-units="px"
     inkscape:current-layer="layer1"
     showgrid="false"
     inkscape:window-width="1440"
     inkscape:window-height="852"
     inkscape:window-x="0"
     inkscape:window-y="0"
     inkscape:window-maximized="1" />
  <metadata
     id="metadata3807">
    <rdf:RDF>
      <cc:Work
         rdf:about="">
        <dc:format>image/svg+xml</dc:format>
        <dc:type
           rdf:resource="http://purl.org/dc/dcmitype/StillImage" />
        <dc:title></dc:title>
      </cc:Work>
    </rdf:RDF>
  </metadata>
  <g
     inkscape:label="Layer 1"
     inkscape:groupmode="layer"
     id="layer1"
     transform="translate(0,-1028.3622)">
    <path
       style="opacity:1;fill:#ffffff;fill-opacity:1;fill-rule:nonzero;stroke:#9c9c9c;stroke-width:0;stroke-linejoin:round;stroke-miterlimit:1;stroke-opacity:1;stroke-dasharray:none"
       d="m 3.5083665,1029.8354 c -1.0582923,0 -1.9146165,0.8702 -1.9146165,1.9456 l 0,17.1089 c 0,1.0754 0.8563242,1.9455 1.9146165,1.9455 l 17.2011575,0 c 1.058292,0 1.884226,-0.8701 1.884226,-1.9455 l 0,-17.1089 c 0,-1.0754 -0.825934,-1.9456 -1.884226,-1.9456 l -17.2011575,0 z m 11.9739505,0.9574 c 0.08466,0 0.146527,0.025 0.212735,0.093 l 1.975398,2.0074 c 0.132417,0.1358 0.127048,0.3531 0,0.4941 -0.127047,0.1409 -0.323445,0.1358 -0.455861,0 l -1.975398,-2.0074 c -0.132416,-0.1358 -0.127047,-0.3531 0,-0.4941 0.06352,-0.07 0.158473,-0.091 0.243126,-0.093 z m -7.0506509,1.1118 c 0.1299825,0 0.2508249,0.052 0.3039073,0.1853 0.070777,0.1771 -0.011683,0.4136 -0.1823444,0.4941 l -2.5224312,1.1735 c -0.1706619,0.08 -0.3546937,-0.01 -0.4254704,-0.1853 -0.070777,-0.1772 0.011683,-0.3828 0.1823445,-0.4633 l 2.5224312,-1.1735 c 0.042666,-0.02 0.078236,-0.03 0.121563,-0.031 z m 6.9594789,1.5749 c 0.772584,0.101 1.207998,1.6907 0.972504,3.5515 -0.235495,1.8608 -1.05086,3.3127 -1.823445,3.2118 -0.772584,-0.101 -1.207998,-1.6907 -0.972503,-3.5515 0.235494,-1.8609 1.05086,-3.3128 1.823444,-3.2118 z m -7.2026048,0.3706 c 0.7725844,-0.101 1.5879496,1.3201 1.8234438,3.1809 0.235495,1.8608 -0.1999191,3.4505 -0.9725032,3.5515 -0.7725844,0.101 -1.5879492,-1.3201 -1.8234443,-3.1809 -0.235495,-1.8608 0.1999193,-3.4505 0.9725037,-3.5515 z m 4.4066568,7.9368 c 3.244618,0.175 5.864764,1.9225 5.835022,3.953 -9.1997174,-1.2886 -9.5656512,0.6362 -12.3690305,2.7484 -0.030352,-1.4054 -0.9534157,-6.5469 6.5340085,-6.7014 z"
       id="rect3810"
       inkscape:connector-curvature="0" />
  </g>
</svg>
