<?xml version="1.0" encoding="UTF-8" standalone="no"?>
<!-- Created with Inkscape (http://www.inkscape.org/) -->

<svg
   xmlns:dc="http://purl.org/dc/elements/1.1/"
   xmlns:cc="http://creativecommons.org/ns#"
   xmlns:rdf="http://www.w3.org/1999/02/22-rdf-syntax-ns#"
   xmlns:svg="http://www.w3.org/2000/svg"
   xmlns="http://www.w3.org/2000/svg"
   xmlns:sodipodi="http://sodipodi.sourceforge.net/DTD/sodipodi-0.dtd"
   xmlns:inkscape="http://www.inkscape.org/namespaces/inkscape"
   width="32"
   height="32"
   id="svg2"
   version="1.1"
   inkscape:version="0.48.2 r9819"
   sodipodi:docname="trash.svg"
   inkscape:export-filename="/Users/fedepaol/devel/DroidAlone/res/drawable-xhdpi/trash.png"
   inkscape:export-xdpi="180"
   inkscape:export-ydpi="180">
  <defs
     id="defs4" />
  <sodipodi:namedview
     id="base"
     pagecolor="#ffffff"
     bordercolor="#666666"
     borderopacity="1.0"
     inkscape:pageopacity="0.0"
     inkscape:pageshadow="2"
     inkscape:zoom="25.4375"
     inkscape:cx="9.041769"
     inkscape:cy="16"
     inkscape:document-units="px"
     inkscape:current-layer="layer1"
     showgrid="false"
     inkscape:window-width="1440"
     inkscape:window-height="878"
     inkscape:window-x="0"
     inkscape:window-y="0"
     inkscape:window-maximized="1">
    <inkscape:grid
       type="xygrid"
       id="grid3757"
       empspacing="5"
       visible="true"
       enabled="true"
       snapvisiblegridlinesonly="true" />
  </sodipodi:namedview>
  <metadata
     id="metadata7">
    <rdf:RDF>
      <cc:Work
         rdf:about="">
        <dc:format>image/svg+xml</dc:format>
        <dc:type
           rdf:resource="http://purl.org/dc/dcmitype/StillImage" />
        <dc:title />
      </cc:Work>
    </rdf:RDF>
  </metadata>
  <g
     inkscape:label="Layer 1"
     inkscape:groupmode="layer"
     id="layer1"
     transform="translate(0,-1020.3622)">
    <path
       style="fill:#f3e6c5;fill-opacity:1;stroke:none;opacity:0.8"
       d="M 15.84375 8.75 C 11.44375 8.75 7.03125 9.16875 7.03125 9.96875 C 5.27125 9.96875 8.8024996 27.5625 10.5625 27.5625 C 10.5625 29.1625 21.125 29.1625 21.125 27.5625 C 22.885 27.5625 26.385 9.96875 24.625 9.96875 C 24.625 9.16875 20.24375 8.75 15.84375 8.75 z M 11.375 10.71875 L 12.0625 10.71875 C 12.427068 10.706019 12.737269 10.979182 12.75 11.34375 L 13.28125 26.34375 C 13.293981 26.708318 12.989568 27.018519 12.625 27.03125 L 11.96875 27.0625 C 11.604182 27.075231 11.293981 26.802068 11.28125 26.4375 L 10.75 11.40625 C 10.737269 11.041682 11.010432 10.731481 11.375 10.71875 z M 15.65625 10.71875 L 16.34375 10.71875 C 16.70854 10.71875 17 11.01021 17 11.375 L 17 26.40625 C 17 26.77104 16.70854 27.0625 16.34375 27.0625 L 15.65625 27.0625 C 15.29146 27.0625 15 26.77104 15 26.40625 L 15 11.375 C 15 11.01021 15.29146 10.71875 15.65625 10.71875 z M 19.96875 10.71875 L 20.625 10.71875 C 20.989568 10.731481 21.293981 11.041682 21.28125 11.40625 L 20.75 26.4375 C 20.737269 26.802068 20.427068 27.075231 20.0625 27.0625 L 19.375 27.03125 C 19.010432 27.018519 18.737269 26.708318 18.75 26.34375 L 19.28125 11.34375 C 19.293981 10.979182 19.604182 10.706019 19.96875 10.71875 z "
       transform="translate(0,1020.3622)"
       id="path6917" />
    <path
       style="opacity:0.8;fill:#f3e6c5;fill-opacity:1;fill-rule:nonzero;stroke:none"
       d="m 13.971504,1024.6781 c -0.523987,-0.06 -0.981839,0.3312 -1.042199,0.8552 -0.005,0.044 0.01584,0.084 0.01674,0.1277 l -8.1026756,-0.9333 c -0.5239885,-0.06 -1.0093021,0.2965 -1.0696624,0.8205 -0.060349,0.524 0.3275527,1.0129 0.8515412,1.0732 l 23.3456428,2.6891 c 0.523988,0.06 1.012883,-0.3276 1.073232,-0.8515 0.06036,-0.5241 -0.331123,-0.9819 -0.855111,-1.0422 l -8.195811,-0.944 c 0.01078,-0.042 0.04031,-0.077 0.04535,-0.1206 0.06036,-0.5241 -0.296496,-1.0094 -0.820485,-1.0698 l -5.246561,-0.6043 z"
       id="rect7453"
       inkscape:connector-curvature="0" />
  </g>
</svg>
