<?xml version="1.0" encoding="UTF-8" standalone="no"?>
<!-- Created with Inkscape (http://www.inkscape.org/) -->

<svg
   xmlns:dc="http://purl.org/dc/elements/1.1/"
   xmlns:cc="http://creativecommons.org/ns#"
   xmlns:rdf="http://www.w3.org/1999/02/22-rdf-syntax-ns#"
   xmlns:svg="http://www.w3.org/2000/svg"
   xmlns="http://www.w3.org/2000/svg"
   xmlns:sodipodi="http://sodipodi.sourceforge.net/DTD/sodipodi-0.dtd"
   xmlns:inkscape="http://www.inkscape.org/namespaces/inkscape"
   width="32"
   height="32"
   id="svg2"
   version="1.1"
   inkscape:version="0.48.2 r9819"
   sodipodi:docname="wizard.svg">
  <defs
     id="defs4" />
  <sodipodi:namedview
     id="base"
     pagecolor="#ffffff"
     bordercolor="#666666"
     borderopacity="1.0"
     inkscape:pageopacity="0.0"
     inkscape:pageshadow="2"
     inkscape:zoom="3.959798"
     inkscape:cx="-33.675532"
     inkscape:cy="60.662721"
     inkscape:document-units="px"
     inkscape:current-layer="layer1"
     showgrid="false"
     inkscape:window-width="1440"
     inkscape:window-height="852"
     inkscape:window-x="0"
     inkscape:window-y="0"
     inkscape:window-maximized="1" />
  <metadata
     id="metadata7">
    <rdf:RDF>
      <cc:Work
         rdf:about="">
        <dc:format>image/svg+xml</dc:format>
        <dc:type
           rdf:resource="http://purl.org/dc/dcmitype/StillImage" />
        <dc:title></dc:title>
      </cc:Work>
    </rdf:RDF>
  </metadata>
  <g
     inkscape:label="Layer 1"
     inkscape:groupmode="layer"
     id="layer1"
     transform="translate(0,-1020.3622)">
    <path
       style="fill:#f3e6c5;fill-opacity:1;fill-rule:nonzero;stroke:none;opacity:0.8"
       d="m 26.647962,1030.8096 c -0.546216,-0.5352 -1.389846,-0.5665 -1.876831,-0.07 l -16.625793,16.9668 c -0.4869148,0.4969 -0.4204443,1.3213 0.125771,1.8566 l 1.1339856,1.1112 c 0.546216,0.5352 1.3717894,0.5849 1.8587044,0.088 l 16.625793,-16.9668 c 0.486985,-0.497 0.438571,-1.3398 -0.107645,-1.8751 l -1.133985,-1.1112 z m -0.600132,0.5315 1.194735,1.1707 c 0.290121,0.2843 0.315756,0.731 0.05715,0.9949 l -0.667906,0.6816 -2.455081,2.5054 -0.433234,0.4422 c -0.0168,0.017 -0.03975,0 -0.0587,-0.021 l -0.485993,-0.4762 -1.194735,-1.1707 -0.485994,-0.4762 c -0.01894,-0.019 -0.0405,-0.04 -0.0223,-0.058 l 0.433233,-0.4421 2.455081,-2.5054 0.667907,-0.6817 c 0.25861,-0.2639 0.70572,-0.2473 0.995841,0.037 z m -3.224084,6.0852 0.344246,0.3374 c 0.01894,0.018 0.0216,0.059 0.0048,0.076 l -12.004473,12.2508 c -0.0168,0.017 -0.05725,0.015 -0.07619,0 l -0.344246,-0.3373 c -0.01894,-0.019 -0.0014,-0.039 0.01544,-0.056 l 12.004477,-12.2507 c 0.0168,-0.017 0.03698,-0.035 0.05594,-0.017 z"
       id="rect3755"
       inkscape:connector-curvature="0" />
    <path
       sodipodi:type="star"
       style="fill:#f3e6c5;fill-opacity:1;fill-rule:nonzero;stroke:none;opacity:0.8"
       id="path3772"
       sodipodi:sides="5"
       sodipodi:cx="-64.553574"
       sodipodi:cy="-46.928574"
       sodipodi:r1="5.4756241"
       sodipodi:r2="2.3875878"
       sodipodi:arg1="1.1509164"
       sodipodi:arg2="1.6932694"
       inkscape:flatsided="false"
       inkscape:rounded="0"
       inkscape:randomized="0"
       d="m -62.321431,-41.928574 -2.523827,-2.630296 -3.773828,1.298275 1.721655,-3.213109 -2.40091,-3.187934 3.587868,0.644486 2.289984,-3.268527 0.49577,3.611423 3.816198,1.167874 -3.281466,1.587496 z"
       transform="translate(83.87683,1075.5027)"
       inkscape:transform-center-x="-0.35014245"
       inkscape:transform-center-y="-0.17855281" />
    <path
       inkscape:transform-center-y="-0.17855281"
       inkscape:transform-center-x="-0.35014245"
       transform="translate(74.785457,1081.0585)"
       d="m -62.321431,-41.928574 -2.523827,-2.630296 -3.773828,1.298275 1.721655,-3.213109 -2.40091,-3.187934 3.587868,0.644486 2.289984,-3.268527 0.49577,3.611423 3.816198,1.167874 -3.281466,1.587496 z"
       inkscape:randomized="0"
       inkscape:rounded="0"
       inkscape:flatsided="false"
       sodipodi:arg2="1.6932694"
       sodipodi:arg1="1.1509164"
       sodipodi:r2="2.3875878"
       sodipodi:r1="5.4756241"
       sodipodi:cy="-46.928574"
       sodipodi:cx="-64.553574"
       sodipodi:sides="5"
       id="path3776"
       style="fill:#f3e6c5;fill-opacity:1;fill-rule:nonzero;stroke:none;opacity:0.8"
       sodipodi:type="star" />
  </g>
</svg>
